# AST/ASF file generated using VICON BodyLanguage
# -----------------------------------------------
:version 1.10
:name VICON
:units
  mass 1.0
  length 0.45
  angle deg
:documentation
   .ast/.asf automatically generated from VICON data using
   VICON BodyBuilder and BodyLanguage model FoxedUp or BRILLIANT.MOD
:root
   order TX TY TZ RX RY RZ
   axis XYZ
   position 0 0 0  
   orientation 0 0 0 
:bonedata
  begin
     id 1 
     name lhipjoint
     direction 0.677091 -0.635792 0.370561 
     length 2.74323 
     axis 0 0 0  XYZ
  end
  begin
     id 2 
     name lfemur
     direction 0.34202 -0.939693 0  
     length 7.44995  
     axis 0 0 20  XYZ
    dof rx ry rz
    limits (-160.0 20.0)
           (-70.0 70.0)
           (-60.0 70.0)
  end
  begin
     id 3 
     name ltibia
     direction 0.34202 -0.939693 0   
     length 7.34467   
     axis 0 0 20   XYZ
    dof rx
    limits (-10.0 170.0)
  end
  begin
     id 4 
     name lfoot
     direction 0.101953 -0.280114 0.954537   
     length 1.72105   
     axis -90 7.62852e-016 20   XYZ
    dof rx rz
    limits (-45.0 90.0)
           (-70.0 20.0)
  end
  begin
     id 5 
     name ltoes
     direction 1.53537e-011 -4.21915e-011 1   
     length 0.865872   
     axis -90 7.62852e-016 20   XYZ
    dof rx
    limits (-90.0 20.0)
  end
  begin
     id 6 
     name rhipjoint
     direction -0.695735 -0.620586 0.361699   
     length 2.81045  
     axis 0 0 0  XYZ 
  end
  begin
     id 7 
     name rfemur
     direction -0.34202 -0.939693 0   
     length 7.29387   
     axis 0 0 -20   XYZ
    dof rx ry rz
    limits (-160.0 20.0)
           (-70.0 70.0)
           (-70.0 60.0)
  end
  begin
     id 8 
     name rtibia
     direction -0.34202 -0.939693 0   
     length 7.44935   
     axis 0 0 -20   XYZ
    dof rx
    limits (-10.0 170.0)
 end
 begin
     id 9 
     name rfoot
     direction -0.104163 -0.286184 0.952496   
     length 1.77731  
     axis -90 -7.62852e-016 -20   XYZ
    dof rx rz
    limits (-45.0 90.0)
           (-20.0 70.0)
  end
  begin
     id 10 
     name rtoes
     direction -1.5355e-011 -4.21888e-011 1   
     length 0.892424   
     axis -90 -7.62852e-016 -20   XYZ
    dof rx
    limits (-90.0 20.0)
  end
  begin
     id 11 
     name lowerback
     direction 0.0100202 0.997226 -0.0737589   
     length 2.16892   
     axis 0 0 0   XYZ
    dof rx ry rz
    limits (-20.0 45.0)
           (-30.0 30.0)
           (-30.0 30.0)
  end
  begin
     id 12 
     name upperback
     direction 0.00432398 0.999988 -0.00215019   
     length 2.17326   
     axis 0 0 0   XYZ
    dof rx ry rz
    limits (-20.0 45.0)
           (-30.0 30.0)
           (-30.0 30.0)
  end
  begin
     id 13 
     name thorax
     direction -0.00195047 0.999485 0.0320434   
     length 2.18139   
     axis 0 0 0   XYZ
    dof rx ry rz
    limits (-20.0 45.0)
           (-30.0 30.0)
           (-30.0 30.0)
  end
  begin
     id 14 
     name lowerneck
     direction 0.00782762 0.986241 0.165128   
     length 1.88415   
     axis 0 0 0   XYZ
    dof rx ry rz
    limits (-20.0 45.0)
           (-30.0 30.0)
           (-30.0 30.0)
  end
  begin
     id 15 
     name upperneck
     direction 0.00988667 0.981098 -0.193258   
     length 1.9242   
     axis 0 0 0   XYZ
    dof rx ry rz
    limits (-20.0 45.0)
           (-30.0 30.0)
           (-30.0 30.0)
  end
  begin
     id 16
     name head
     direction 0.00252199 0.996513 -0.0833958  
     length 1.93887  
     axis 0 0 0   XYZ
    dof rx ry rz
    limits (-20.0 45.0)
           (-30.0 30.0)
           (-30.0 30.0)
  end
  begin
     id 17 
     name lclavicle
     direction 0.929492 0.368193 -0.0218667  
     length 3.5955  
     axis 0 0 0   XYZ
    dof ry rz
    limits (-20.0 10.0)
           (0.0 20.0)
  end
  begin
     id 18 
     name lhumerus
     direction 1 -4.48972e-011 1.41911e-027   
     length 5.2795   
     axis 180 -30 -90   XYZ
    dof rx ry rz
    limits (-60.0 90.0)
           (-90.0 90.0)
           (-90.0 90.0)
  end
  begin
     id 19
     name lradius
     direction 1 -4.48963e-011 7.05772e-027   
     length 3.53504   
     axis 180 -30 -90   XYZ
    dof rx
    limits (-10.0 170.0)
  end
  begin
     id 20
     name lwrist
     direction 1 -4.48957e-011 9.54866e-027   
     length 1.76752   
     axis -7.69462e-015 90 90   XYZ
    dof ry
    limits (-180.0 0.0)
 end
  begin
     id 21 
     name lhand
     direction 1 -4.48979e-011 1.90973e-026   
     length 0.667948   
     axis -1.21857e-014 90 90   XYZ
    dof rx rz
    limits (-90.0 90.0)
           (-45.0 45.0)
  end
  begin
     id 22 
     name lfingers
     direction 1 -4.48987e-011 3.81946e-026   
     length 0.538517   
     axis -2.43714e-014 90 90   XYZ
    dof rx
    limits (0.0 90.0)
  end
  begin
     id 23
     name lthumb
     direction 0.707107 -6.34962e-011 0.707107   
     length 0.773206   
     axis -90 45 2.85299e-015   XYZ
    dof rx rz
    limits (-45.0 45.0)
           (-45.0 45.0)
  end
  begin
     id 24 
     name rclavicle
     direction -0.898763 0.414256 -0.143584   
     length 3.5176  
     axis 0 0 0   XYZ 
    dof ry rz
    limits (-10.0 20.0)
           (-20.0 0.0)
  end
  begin
     id 25 
     name rhumerus
     direction -1 -4.48971e-011 1.129e-027  
     length 5.25035   
     axis 180 30 90   XYZ
    dof rx ry rz
    limits (-90.0 60.0)
           (-90.0 90.0)
           (-90.0 90.0)
  end
  begin
     id 26 
     name rradius
     direction -1 -4.48955e-011 6.34664e-027   
     length 3.58884   
     axis 180 30 90   XYZ
    dof rx
    limits (-10.0 170.0)
  end
  begin
     id 27 
     name rwrist
     direction -1 -4.48966e-011 9.54866e-027   
     length 1.79442   
     axis -7.69462e-015 -90 -90   XYZ
    dof ry
    limits (-180.0 0.0)
  end
  begin
     id 28
     name rhand
     direction -1 -4.48973e-011 1.90973e-026   
     length 0.779235   
     axis -1.21857e-014 -90 -90   XYZ
    dof rx rz
    limits (-90.0 90.0)
           (-45.0 45.0)
  end
  begin
     id 29
     name rfingers
     direction -1 -4.48984e-011 3.81946e-026   
     length 0.62824   
     axis -2.43714e-014 -90 -90   XYZ
    dof rx
    limits (0.0 90.0)
  end
  begin
     id 30
     name rthumb
     direction -0.707107 -6.34968e-011 0.707107   
     length 0.90203   
     axis -90 -45 -2.85299e-015   XYZ
    dof rx rz
    limits (-45.0 45.0)
           (-45.0 45.0)
  end
:hierarchy
  begin
    root lhipjoint rhipjoint lowerback
    lhipjoint lfemur
    lfemur ltibia
    ltibia lfoot
    lfoot ltoes
    rhipjoint rfemur
    rfemur rtibia
    rtibia rfoot
    rfoot rtoes
    lowerback upperback
    upperback thorax
    thorax lowerneck lclavicle rclavicle
    lowerneck upperneck
    upperneck head
    lclavicle lhumerus
    lhumerus lradius
    lradius lwrist
    lwrist lhand lthumb
    lhand lfingers
    rclavicle rhumerus
    rhumerus rradius
    rradius rwrist
    rwrist rhand rthumb
    rhand rfingers
  end

#!OML:ASF I:\Random Stuff\random\construction\7_22_03\Session 2\subj1.ASF
:FULLY-SPECIFIED
:DEGREES
141
root -13.3503 17.8064 -2.23201 -184.445 69.5118 -193.154
lowerback 6.32176 -0.20219 1.92775
upperback -1.22898 0.0488715 2.58418
thorax -4.82659 0.0252704 1.59169
lowerneck -19.6756 -7.27181 -5.34158
upperneck 37.4156 -9.71905 5.37241
head 17.744 -3.38771 1.53026
rclavicle 3.12092e-014 -1.11319e-014
rhumerus -23.2542 -9.12231 -67.0655
rradius 61.6023
rwrist 10.6468
rhand -32.4191 17.6395
rfingers 7.12502
rthumb -5.65336 -12.2651
lclavicle 3.12092e-014 -1.11319e-014
lhumerus -36.8318 -8.17166 93.7644
lradius 40.2238
lwrist 36.4494
lhand -19.7033 57.4011
lfingers 7.12502
lthumb 6.62622 87.2774
rfemur -21.5093 8.99993 10.9609
rtibia 13.8092
rfoot 1.43906 -22.349
rtoes -5.24592
lfemur -3.83842 0.846808 -13.8216
ltibia 36.3411
lfoot 4.64566 -6.61575
ltoes -13.9703
142
root -13.198 17.8357 -2.17979 -184.803 69.3561 -193.213
lowerback 6.32289 -0.228534 2.11525
upperback -1.06414 0.0334463 2.70245
thorax -4.65562 0.016906 1.6092
lowerneck -19.7097 -7.27974 -5.39604
upperneck 37.3821 -9.73528 5.44124
head 17.7459 -3.39161 1.5662
rclavicle 1.82882e-014 -1.59028e-015
rhumerus -22.9531 -9.47607 -66.8378
rradius 61.9245
rwrist 10.9476
rhand -32.2813 17.8598
rfingers 7.12502
rthumb -5.52032 -12.0483
lclavicle 1.82882e-014 -1.59028e-015
lhumerus -36.8384 -7.89847 93.8968
lradius 40.6407
lwrist 37.1399
lhand -19.7757 57.4
lfingers 7.12502
lthumb 6.55639 87.2786
rfemur -20.3315 8.31335 11.5904
rtibia 13.2017
rfoot 1.34649 -21.7071
rtoes -4.84693
lfemur -4.44568 1.75501 -13.797
ltibia 38.9756
lfoot 4.0691 -4.0628
ltoes -12.5177
143
root -13.0472 17.8657 -2.12693 -184.979 69.1822 -193.007
lowerback 6.37135 -0.249906 2.32791
upperback -0.899858 0.0274529 2.80307
thorax -4.51231 0.0126671 1.59359
lowerneck -19.7234 -7.30533 -5.30606
upperneck 37.4125 -9.81863 5.47639
head 17.7699 -3.40167 1.55037
rclavicle 9.54166e-015 2.38542e-014
rhumerus -22.6918 -9.84164 -66.6349
rradius 62.2153
rwrist 10.6129
rhand -31.9162 17.7136
rfingers 7.12502
rthumb -5.16785 -12.2034
lclavicle 9.54166e-015 2.38542e-014
lhumerus -36.7306 -7.84468 94.0677
lradius 40.8624
lwrist 37.56
lhand -19.8457 57.5058
lfingers 7.12502
lthumb 6.48876 87.3864
rfemur -19.0886 7.93908 12.2462
rtibia 12.6178
rfoot 1.25731 -21.3965
rtoes -4.81365
lfemur -4.94522 2.69996 -13.6177
ltibia 41.3664
lfoot 3.61882 -3.07708
ltoes -11.7108
144
root -12.8967 17.8892 -2.07247 -185.326 69.0193 -192.915
lowerback 6.44485 -0.253519 2.33175
upperback -0.739775 0.0298701 2.92073
thorax -4.38753 0.0180364 1.71234
lowerneck -19.6927 -7.31996 -5.28534
upperneck 37.5045 -9.90292 5.63522
head 17.8343 -3.39936 1.60722
rclavicle -5.60573e-014 -1.27222e-014
rhumerus -22.5161 -10.0975 -66.3949
rradius 62.402
rwrist 10.3039
rhand -31.3662 17.153
rfingers 7.12502
rthumb -4.63678 -12.7763
lclavicle -5.60573e-014 -1.27222e-014
lhumerus -36.5568 -7.91378 94.3258
lradius 40.9169
lwrist 37.6399
lhand -19.6979 57.5344
lfingers 7.12502
lthumb 6.63148 87.4105
rfemur -17.797 7.88182 12.7965
rtibia 12.0519
rfoot 1.24802 -21.3577
rtoes -5.24976
lfemur -5.32179 3.43808 -13.4964
ltibia 43.5166
lfoot 3.18074 -4.08786
ltoes -14.7277
145
root -12.7476 17.9047 -2.01923 -185.915 68.8622 -192.998
lowerback 6.55738 -0.272534 2.16644
upperback -0.584054 7.07129e-005 3.04965
thorax -4.28869 0.0110935 1.94152
lowerneck -19.638 -7.31986 -5.32883
upperneck 37.6892 -9.96193 5.8584
head 17.9549 -3.38114 1.71508
rclavicle 6.95746e-015 -6.67916e-014
rhumerus -22.437 -10.2534 -66.1736
rradius 62.4919
rwrist 10.4108
rhand -30.8009 16.4099
rfingers 7.12502
rthumb -4.0909 -13.5306
lclavicle 6.95746e-015 -6.67916e-014
lhumerus -36.4355 -8.18208 94.6597
lradius 40.9861
lwrist 37.5951
lhand -19.5855 57.5835
lfingers 7.12502
lthumb 6.73994 87.4563
rfemur -16.4469 7.95318 13.2532
rtibia 11.5302
rfoot 1.16391 -21.4472
rtoes -5.63044
lfemur -5.5869 3.74051 -13.5727
ltibia 45.4618
lfoot 2.5769 -5.06568
ltoes -17.0121
146
root -12.6071 17.9147 -1.97075 -186.214 68.7356 -192.894
lowerback 6.60799 -0.295089 2.14108
upperback -0.481054 -0.0257031 3.14704
thorax -4.20979 0.00199407 2.05897
lowerneck -19.6354 -7.33177 -5.26716
upperneck 37.9124 -10.044 5.98564
head 18.097 -3.36809 1.75575
rclavicle 2.78299e-015 3.18055e-015
rhumerus -22.3763 -10.3923 -66.0337
rradius 62.4158
rwrist 10.7146
rhand -30.048 15.5085
rfingers 7.12502
rthumb -3.3638 -14.4447
lclavicle 2.78299e-015 3.18055e-015
lhumerus -36.3215 -8.59965 94.9616
lradius 41.0784
lwrist 37.4835
lhand -19.742 57.647
lfingers 7.12502
lthumb 6.58892 87.5245
rfemur -15.3509 8.14974 13.7183
rtibia 11.1871
rfoot 0.955231 -21.7162
rtoes -5.52744
lfemur -6.00771 3.88185 -13.666
ltibia 47.2312
lfoot 1.79792 -6.33046
ltoes -18.7883
147
root -12.4789 17.9223 -1.92612 -186.146 68.6585 -192.589
lowerback 6.58543 -0.296014 2.29834
upperback -0.457799 -0.0101448 3.21082
thorax -4.17363 0.00852803 2.03481
lowerneck -19.6313 -7.34675 -5.22006
upperneck 38.095 -10.1271 6.11406
head 18.2182 -3.35972 1.7983
rclavicle -9.36276e-014 -1.27222e-014
rhumerus -22.3727 -10.6037 -65.969
rradius 62.1316
rwrist 11.1965
rhand -29.0131 14.3376
rfingers 7.12502
rthumb -2.36437 -15.6291
lclavicle -9.36276e-014 -1.27222e-014
lhumerus -36.2305 -8.96286 95.1809
lradius 41.2269
lwrist 37.1958
lhand -19.7158 57.4927
lfingers 7.12502
lthumb 6.6142 87.3694
rfemur -14.6479 8.59882 14.1755
rtibia 11.1031
rfoot 0.679368 -22.2505
rtoes -5.10959
lfemur -6.65104 4.12849 -13.6758
ltibia 48.8274
lfoot 0.829256 -7.53826
ltoes -20.516
148
root -12.3582 17.9251 -1.88575 -186.087 68.6164 -192.35
lowerback 6.56 -0.301442 2.49301
upperback -0.469891 0.00163963 3.24896
thorax -4.17251 0.0115993 1.96378
lowerneck -19.5788 -7.35198 -5.27762
upperneck 38.201 -10.1944 6.3378
head 18.2999 -3.35214 1.90613
rclavicle 7.55382e-015 -3.65764e-014
rhumerus -22.4236 -10.8403 -65.9791
rradius 61.6973
rwrist 12.0643
rhand -27.7682 12.8666
rfingers 7.12502
rthumb -1.16203 -17.11
lclavicle 7.55382e-015 -3.65764e-014
lhumerus -36.2001 -9.13744 95.2959
lradius 41.4599
lwrist 36.6655
lhand -19.3077 57.1212
lfingers 7.12502
lthumb 7.0081 86.9852
rfemur -14.1333 9.23047 14.5632
rtibia 11.2228
rfoot 0.347012 -22.9405
rtoes -4.60093
lfemur -7.34059 4.51219 -13.7468
ltibia 50.2267
lfoot -0.545578 -8.66732
ltoes -22.958
149
root -12.2423 17.9251 -1.85444 -186.279 68.585 -192.422
lowerback 6.46042 -0.321567 2.67346
upperback -0.463003 -0.0164026 3.22951
thorax -4.10921 -0.00102566 1.84306
lowerneck -19.6437 -7.3023 -5.3214
upperneck 38.3043 -10.1824 6.55121
head 18.4021 -3.31261 2.02126
rclavicle 9.26337e-014 -3.18055e-014
rhumerus -22.4203 -11.0573 -66.0422
rradius 61.14
rwrist 13.0765
rhand -26.4055 11.4419
rfingers 7.12502
rthumb 0.154099 -18.5377
lclavicle 9.26337e-014 -3.18055e-014
lhumerus -36.1542 -9.17385 95.3165
lradius 41.7597
lwrist 35.8984
lhand -18.8906 56.8287
lfingers 7.12502
lthumb 7.41072 86.6789
rfemur -13.7429 9.54689 14.8463
rtibia 11.4988
rfoot -0.0767648 -23.3231
rtoes -4.22068
lfemur -8.0079 4.8106 -14.0418
ltibia 51.3895
lfoot -2.16332 -9.32109
ltoes -24.9093
150
root -12.131 17.9301 -1.8295 -186.756 68.5174 -192.884
lowerback 6.27795 -0.358246 2.75247
upperback -0.476787 -0.0731557 3.15583
thorax -4.02003 -0.0323125 1.72627
lowerneck -19.7586 -7.15281 -5.17816
upperneck 38.4211 -10.0104 6.56456
head 18.4744 -3.21141 2.0441
rclavicle -5.96354e-015 -9.54166e-015
rhumerus -22.428 -11.213 -66.1177
rradius 60.4928
rwrist 13.9054
rhand -25.0692 10.2984
rfingers 7.12502
rthumb 1.44469 -19.6765
lclavicle -5.96354e-015 -9.54166e-015
lhumerus -36.184 -9.21007 95.3289
lradius 42.2387
lwrist 35.5365
lhand -19.2105 56.9103
lfingers 7.12502
lthumb 7.102 86.7711
rfemur -13.5115 9.59287 14.9619
rtibia 11.9196
rfoot -0.676558 -23.5001
rtoes -3.67328
lfemur -8.68717 4.95095 -14.526
ltibia 52.2859
lfoot -3.6597 -9.42452
ltoes -24.6308
151
root -12.0197 17.938 -1.80779 -187.339 68.422 -193.479
lowerback 6.07519 -0.422448 2.73625
upperback -0.513552 -0.175025 3.07754
thorax -3.94282 -0.0845064 1.66231
lowerneck -19.8648 -6.94789 -4.90789
upperneck 38.546 -9.74647 6.4345
head 18.5166 -3.07673 1.99741
rclavicle 5.04913e-014 -3.49861e-014
rhumerus -22.4817 -11.2009 -66.2189
rradius 59.7743
rwrist 14.5704
rhand -23.9532 9.12964
rfingers 7.12502
rthumb 2.52255 -20.8352
lclavicle 5.04913e-014 -3.49861e-014
lhumerus -36.3556 -9.31993 95.3731
lradius 42.8856
lwrist 35.8372
lhand -20.1765 57.1736
lfingers 7.12502
lthumb 6.16941 87.0638
rfemur -13.3124 9.71783 14.9865
rtibia 12.4014
rfoot -1.40215 -23.7892
rtoes -2.59429
lfemur -9.34986 5.24125 -15.0394
ltibia 52.9357
lfoot -5.17956 -9.2583
ltoes -25.0089
152
root -11.9077 17.944 -1.78827 -188.079 68.3236 -194.135
lowerback 5.94561 -0.460041 2.6893
upperback -0.506373 -0.242551 2.98251
thorax -3.86159 -0.119144 1.59496
lowerneck -20.0252 -6.75166 -4.69717
upperneck 38.6919 -9.52284 6.43146
head 18.6087 -2.94504 2.01282
rclavicle 2.28602e-014 3.49861e-014
rhumerus -22.6661 -11.1154 -66.2958
rradius 59.0722
rwrist 15.1259
rhand -22.7977 7.74718
rfingers 7.12502
rthumb 3.63848 -22.2015
lclavicle 2.28602e-014 3.49861e-014
lhumerus -36.4849 -9.40585 95.3228
lradius 43.4477
lwrist 35.4784
lhand -19.8377 56.987
lfingers 7.12502
lthumb 6.49654 86.8674
rfemur -12.9688 9.90566 14.9943
rtibia 12.8418
rfoot -2.08095 -24.1018
rtoes -1.51727
lfemur -9.88276 5.75794 -15.5357
ltibia 53.373
lfoot -6.7247 -8.99505
ltoes -26.0789
